<svg xmlns="http://www.w3.org/2000/svg" xmlns:xlink="http://www.w3.org/1999/xlink" width="800" zoomAndPan="magnify" viewBox="0 0 600 599.999999" height="800" preserveAspectRatio="xMidYMid meet" version="1.0"><defs><g/><clipPath id="5d183c067e"><path d="M 18.980469 18.980469 L 580.273438 18.980469 L 580.273438 580.273438 L 18.980469 580.273438 Z M 18.980469 18.980469 " clip-rule="nonzero"/></clipPath></defs><rect x="-60" width="720" fill="#ffffff" y="-60" height="719.999999" fill-opacity="1"/><rect x="-60" width="720" fill="#ffffff" y="-60" height="719.999999" fill-opacity="1"/><rect x="-60" width="720" fill="#000000" y="-60" height="719.999999" fill-opacity="1"/><g clip-path="url(#5d183c067e)"><path fill="#ffffff" d="M 219.441406 39.023438 C 219.441406 39.679688 219.410156 40.335938 219.34375 40.988281 C 219.28125 41.644531 219.183594 42.292969 219.054688 42.9375 C 218.925781 43.578125 218.769531 44.214844 218.578125 44.84375 C 218.386719 45.472656 218.164062 46.089844 217.914062 46.695312 C 217.664062 47.304688 217.382812 47.894531 217.074219 48.476562 C 216.765625 49.054688 216.425781 49.617188 216.0625 50.164062 C 215.699219 50.707031 215.308594 51.234375 214.890625 51.742188 C 214.472656 52.25 214.035156 52.734375 213.570312 53.199219 C 213.105469 53.664062 212.617188 54.105469 212.113281 54.519531 C 211.605469 54.9375 211.078125 55.328125 210.53125 55.691406 C 209.984375 56.058594 209.421875 56.394531 208.84375 56.703125 C 208.265625 57.015625 207.671875 57.292969 207.066406 57.546875 C 206.460938 57.796875 205.839844 58.015625 205.214844 58.207031 C 204.585938 58.398438 203.949219 58.558594 203.304688 58.6875 C 202.660156 58.8125 202.011719 58.910156 201.359375 58.976562 C 200.707031 59.039062 200.050781 59.070312 199.394531 59.070312 L 79.117188 59.070312 C 78.460938 59.070312 77.804688 59.101562 77.152344 59.167969 C 76.5 59.230469 75.851562 59.328125 75.207031 59.457031 C 74.5625 59.585938 73.925781 59.742188 73.296875 59.933594 C 72.671875 60.125 72.050781 60.347656 71.445312 60.597656 C 70.839844 60.847656 70.246094 61.128906 69.667969 61.4375 C 69.089844 61.746094 68.527344 62.085938 67.980469 62.449219 C 67.433594 62.8125 66.90625 63.203125 66.398438 63.621094 C 65.894531 64.039062 65.40625 64.476562 64.941406 64.941406 C 64.476562 65.40625 64.039062 65.894531 63.621094 66.398438 C 63.203125 66.90625 62.8125 67.433594 62.449219 67.980469 C 62.085938 68.527344 61.746094 69.089844 61.4375 69.667969 C 61.128906 70.246094 60.847656 70.839844 60.597656 71.445312 C 60.347656 72.050781 60.125 72.671875 59.933594 73.296875 C 59.742188 73.925781 59.585938 74.5625 59.457031 75.207031 C 59.328125 75.851562 59.230469 76.5 59.167969 77.152344 C 59.101562 77.804688 59.070312 78.460938 59.070312 79.117188 L 59.070312 199.394531 C 59.070312 200.050781 59.039062 200.707031 58.976562 201.359375 C 58.910156 202.011719 58.8125 202.660156 58.6875 203.304688 C 58.558594 203.949219 58.398438 204.585938 58.207031 205.214844 C 58.015625 205.839844 57.796875 206.460938 57.546875 207.066406 C 57.292969 207.671875 57.015625 208.265625 56.703125 208.84375 C 56.394531 209.421875 56.058594 209.984375 55.691406 210.53125 C 55.328125 211.078125 54.9375 211.605469 54.519531 212.113281 C 54.105469 212.617188 53.664062 213.105469 53.199219 213.570312 C 52.734375 214.035156 52.25 214.472656 51.742188 214.890625 C 51.234375 215.308594 50.707031 215.699219 50.164062 216.0625 C 49.617188 216.425781 49.054688 216.765625 48.476562 217.074219 C 47.894531 217.382812 47.304688 217.664062 46.695312 217.914062 C 46.089844 218.164062 45.472656 218.386719 44.84375 218.578125 C 44.214844 218.769531 43.578125 218.925781 42.9375 219.054688 C 42.292969 219.183594 41.644531 219.28125 40.988281 219.34375 C 40.335938 219.410156 39.679688 219.441406 39.023438 219.441406 C 38.367188 219.441406 37.714844 219.410156 37.058594 219.34375 C 36.40625 219.28125 35.757812 219.183594 35.113281 219.054688 C 34.46875 218.925781 33.835938 218.769531 33.207031 218.578125 C 32.578125 218.386719 31.960938 218.164062 31.355469 217.914062 C 30.746094 217.664062 30.15625 217.382812 29.574219 217.074219 C 28.996094 216.765625 28.433594 216.425781 27.886719 216.0625 C 27.34375 215.699219 26.816406 215.308594 26.308594 214.890625 C 25.800781 214.472656 25.316406 214.035156 24.851562 213.570312 C 24.386719 213.105469 23.945312 212.617188 23.527344 212.113281 C 23.113281 211.605469 22.722656 211.078125 22.355469 210.53125 C 21.992188 209.984375 21.65625 209.421875 21.347656 208.84375 C 21.035156 208.265625 20.757812 207.671875 20.503906 207.066406 C 20.253906 206.460938 20.03125 205.839844 19.84375 205.214844 C 19.652344 204.585938 19.492188 203.949219 19.363281 203.304688 C 19.234375 202.660156 19.140625 202.011719 19.074219 201.359375 C 19.011719 200.707031 18.980469 200.050781 18.980469 199.394531 L 18.980469 79.117188 C 18.980469 77.148438 19.074219 75.183594 19.269531 73.222656 C 19.460938 71.261719 19.75 69.316406 20.132812 67.386719 C 20.519531 65.453125 20.996094 63.546875 21.570312 61.660156 C 22.140625 59.773438 22.804688 57.921875 23.558594 56.101562 C 24.308594 54.285156 25.152344 52.503906 26.078125 50.769531 C 27.007812 49.03125 28.019531 47.34375 29.113281 45.707031 C 30.207031 44.070312 31.378906 42.488281 32.628906 40.964844 C 33.878906 39.445312 35.199219 37.984375 36.59375 36.59375 C 37.984375 35.199219 39.445312 33.878906 40.964844 32.628906 C 42.488281 31.378906 44.070312 30.207031 45.707031 29.113281 C 47.34375 28.019531 49.03125 27.007812 50.769531 26.078125 C 52.503906 25.152344 54.285156 24.308594 56.101562 23.558594 C 57.921875 22.804688 59.773438 22.140625 61.660156 21.570312 C 63.546875 20.996094 65.453125 20.519531 67.386719 20.132812 C 69.316406 19.75 71.261719 19.460938 73.222656 19.269531 C 75.183594 19.074219 77.148438 18.980469 79.117188 18.980469 L 199.394531 18.980469 C 200.050781 18.980469 200.707031 19.011719 201.359375 19.074219 C 202.011719 19.140625 202.660156 19.234375 203.304688 19.363281 C 203.949219 19.492188 204.585938 19.652344 205.214844 19.84375 C 205.839844 20.03125 206.460938 20.253906 207.066406 20.503906 C 207.671875 20.757812 208.265625 21.035156 208.84375 21.347656 C 209.421875 21.65625 209.984375 21.992188 210.53125 22.355469 C 211.078125 22.722656 211.605469 23.113281 212.113281 23.527344 C 212.617188 23.945312 213.105469 24.386719 213.570312 24.851562 C 214.035156 25.316406 214.472656 25.800781 214.890625 26.308594 C 215.308594 26.816406 215.699219 27.34375 216.0625 27.886719 C 216.425781 28.433594 216.765625 28.996094 217.074219 29.574219 C 217.382812 30.15625 217.664062 30.746094 217.914062 31.355469 C 218.164062 31.960938 218.386719 32.578125 218.578125 33.207031 C 218.769531 33.835938 218.925781 34.46875 219.054688 35.113281 C 219.183594 35.757812 219.28125 36.40625 219.34375 37.058594 C 219.410156 37.714844 219.441406 38.367188 219.441406 39.023438 Z M 520.132812 18.980469 L 399.855469 18.980469 C 399.199219 18.980469 398.542969 19.011719 397.890625 19.074219 C 397.238281 19.140625 396.589844 19.234375 395.945312 19.363281 C 395.300781 19.492188 394.664062 19.652344 394.035156 19.84375 C 393.410156 20.03125 392.792969 20.253906 392.183594 20.503906 C 391.578125 20.757812 390.984375 21.035156 390.40625 21.347656 C 389.828125 21.65625 389.265625 21.992188 388.71875 22.355469 C 388.171875 22.722656 387.644531 23.113281 387.140625 23.527344 C 386.632812 23.945312 386.144531 24.386719 385.679688 24.851562 C 385.21875 25.316406 384.777344 25.800781 384.359375 26.308594 C 383.945312 26.816406 383.554688 27.34375 383.1875 27.886719 C 382.824219 28.433594 382.488281 28.996094 382.175781 29.574219 C 381.867188 30.15625 381.585938 30.746094 381.335938 31.355469 C 381.085938 31.960938 380.863281 32.578125 380.671875 33.207031 C 380.484375 33.835938 380.324219 34.46875 380.195312 35.113281 C 380.066406 35.757812 379.972656 36.40625 379.90625 37.058594 C 379.84375 37.714844 379.808594 38.367188 379.808594 39.023438 C 379.808594 39.679688 379.84375 40.335938 379.90625 40.988281 C 379.972656 41.644531 380.066406 42.292969 380.195312 42.9375 C 380.324219 43.578125 380.484375 44.214844 380.671875 44.84375 C 380.863281 45.472656 381.085938 46.089844 381.335938 46.695312 C 381.585938 47.304688 381.867188 47.894531 382.175781 48.476562 C 382.488281 49.054688 382.824219 49.617188 383.1875 50.164062 C 383.554688 50.707031 383.945312 51.234375 384.359375 51.742188 C 384.777344 52.25 385.21875 52.734375 385.679688 53.199219 C 386.144531 53.664062 386.632812 54.105469 387.140625 54.519531 C 387.644531 54.9375 388.171875 55.328125 388.71875 55.691406 C 389.265625 56.058594 389.828125 56.394531 390.40625 56.703125 C 390.984375 57.015625 391.578125 57.292969 392.183594 57.546875 C 392.792969 57.796875 393.410156 58.015625 394.035156 58.207031 C 394.664062 58.398438 395.300781 58.558594 395.945312 58.6875 C 396.589844 58.8125 397.238281 58.910156 397.890625 58.976562 C 398.542969 59.039062 399.199219 59.070312 399.855469 59.070312 L 520.132812 59.070312 C 520.789062 59.070312 521.445312 59.101562 522.097656 59.167969 C 522.75 59.230469 523.398438 59.328125 524.042969 59.457031 C 524.6875 59.585938 525.324219 59.742188 525.953125 59.933594 C 526.582031 60.125 527.199219 60.347656 527.804688 60.597656 C 528.410156 60.847656 529.003906 61.128906 529.582031 61.4375 C 530.160156 61.746094 530.722656 62.085938 531.269531 62.449219 C 531.816406 62.8125 532.34375 63.203125 532.851562 63.621094 C 533.359375 64.039062 533.84375 64.476562 534.308594 64.941406 C 534.773438 65.40625 535.210938 65.894531 535.628906 66.398438 C 536.046875 66.90625 536.4375 67.433594 536.800781 67.980469 C 537.164062 68.527344 537.503906 69.089844 537.8125 69.667969 C 538.121094 70.246094 538.402344 70.839844 538.652344 71.445312 C 538.90625 72.050781 539.125 72.671875 539.316406 73.296875 C 539.507812 73.925781 539.664062 74.5625 539.792969 75.207031 C 539.921875 75.851562 540.019531 76.5 540.082031 77.152344 C 540.148438 77.804688 540.179688 78.460938 540.179688 79.117188 L 540.179688 199.394531 C 540.179688 200.050781 540.210938 200.707031 540.277344 201.359375 C 540.339844 202.011719 540.4375 202.660156 540.5625 203.304688 C 540.691406 203.949219 540.851562 204.585938 541.042969 205.214844 C 541.234375 205.839844 541.453125 206.460938 541.703125 207.066406 C 541.957031 207.671875 542.238281 208.265625 542.546875 208.84375 C 542.855469 209.421875 543.191406 209.984375 543.558594 210.53125 C 543.921875 211.078125 544.3125 211.605469 544.730469 212.113281 C 545.144531 212.617188 545.585938 213.105469 546.050781 213.570312 C 546.515625 214.035156 547 214.472656 547.507812 214.890625 C 548.015625 215.308594 548.542969 215.699219 549.089844 216.0625 C 549.632812 216.425781 550.195312 216.765625 550.777344 217.074219 C 551.355469 217.382812 551.949219 217.664062 552.554688 217.914062 C 553.160156 218.164062 553.777344 218.386719 554.40625 218.578125 C 555.035156 218.769531 555.671875 218.925781 556.316406 219.054688 C 556.957031 219.183594 557.605469 219.28125 558.261719 219.34375 C 558.914062 219.410156 559.570312 219.441406 560.226562 219.441406 C 560.882812 219.441406 561.535156 219.410156 562.191406 219.34375 C 562.84375 219.28125 563.492188 219.183594 564.136719 219.054688 C 564.78125 218.925781 565.417969 218.769531 566.042969 218.578125 C 566.671875 218.386719 567.289062 218.164062 567.898438 217.914062 C 568.503906 217.664062 569.097656 217.382812 569.675781 217.074219 C 570.253906 216.765625 570.816406 216.425781 571.363281 216.0625 C 571.910156 215.699219 572.433594 215.308594 572.941406 214.890625 C 573.449219 214.472656 573.9375 214.035156 574.398438 213.570312 C 574.863281 213.105469 575.304688 212.617188 575.722656 212.113281 C 576.136719 211.605469 576.527344 211.078125 576.894531 210.53125 C 577.257812 209.984375 577.59375 209.421875 577.90625 208.84375 C 578.214844 208.265625 578.496094 207.671875 578.746094 207.066406 C 578.996094 206.460938 579.21875 205.839844 579.410156 205.214844 C 579.597656 204.585938 579.757812 203.949219 579.886719 203.304688 C 580.015625 202.660156 580.109375 202.011719 580.175781 201.359375 C 580.238281 200.707031 580.273438 200.050781 580.273438 199.394531 L 580.273438 79.117188 C 580.273438 77.148438 580.175781 75.183594 579.980469 73.222656 C 579.789062 71.261719 579.5 69.316406 579.117188 67.386719 C 578.730469 65.453125 578.253906 63.546875 577.683594 61.660156 C 577.109375 59.773438 576.449219 57.921875 575.695312 56.101562 C 574.941406 54.285156 574.097656 52.503906 573.171875 50.769531 C 572.242188 49.03125 571.230469 47.34375 570.136719 45.707031 C 569.042969 44.070312 567.871094 42.488281 566.621094 40.964844 C 565.371094 39.445312 564.050781 37.984375 562.65625 36.59375 C 561.265625 35.199219 559.808594 33.878906 558.285156 32.628906 C 556.761719 31.378906 555.183594 30.207031 553.542969 29.113281 C 551.90625 28.019531 550.21875 27.007812 548.480469 26.078125 C 546.746094 25.152344 544.964844 24.308594 543.148438 23.558594 C 541.328125 22.804688 539.476562 22.140625 537.589844 21.570312 C 535.707031 20.996094 533.796875 20.519531 531.867188 20.132812 C 529.933594 19.75 527.988281 19.460938 526.027344 19.269531 C 524.066406 19.074219 522.101562 18.980469 520.132812 18.980469 Z M 199.394531 540.179688 L 79.117188 540.179688 C 78.460938 540.179688 77.804688 540.148438 77.152344 540.082031 C 76.5 540.019531 75.851562 539.921875 75.207031 539.792969 C 74.5625 539.664062 73.925781 539.507812 73.296875 539.316406 C 72.671875 539.125 72.050781 538.90625 71.445312 538.652344 C 70.839844 538.402344 70.246094 538.121094 69.667969 537.8125 C 69.089844 537.503906 68.527344 537.164062 67.980469 536.800781 C 67.433594 536.4375 66.90625 536.046875 66.398438 535.628906 C 65.894531 535.210938 65.40625 534.773438 64.941406 534.308594 C 64.476562 533.84375 64.039062 533.359375 63.621094 532.851562 C 63.203125 532.34375 62.8125 531.816406 62.449219 531.269531 C 62.085938 530.722656 61.746094 530.160156 61.4375 529.582031 C 61.128906 529.003906 60.847656 528.410156 60.597656 527.804688 C 60.347656 527.199219 60.125 526.582031 59.933594 525.953125 C 59.742188 525.324219 59.585938 524.6875 59.457031 524.042969 C 59.328125 523.398438 59.230469 522.75 59.167969 522.097656 C 59.101562 521.445312 59.070312 520.789062 59.070312 520.132812 L 59.070312 399.855469 C 59.070312 399.199219 59.039062 398.542969 58.976562 397.890625 C 58.910156 397.238281 58.8125 396.589844 58.6875 395.945312 C 58.558594 395.300781 58.398438 394.664062 58.207031 394.035156 C 58.015625 393.410156 57.796875 392.792969 57.546875 392.183594 C 57.292969 391.578125 57.015625 390.984375 56.703125 390.40625 C 56.394531 389.828125 56.058594 389.265625 55.691406 388.71875 C 55.328125 388.171875 54.9375 387.644531 54.519531 387.140625 C 54.105469 386.632812 53.664062 386.144531 53.199219 385.679688 C 52.734375 385.21875 52.25 384.777344 51.742188 384.359375 C 51.234375 383.945312 50.707031 383.554688 50.164062 383.1875 C 49.617188 382.824219 49.054688 382.488281 48.476562 382.175781 C 47.894531 381.867188 47.304688 381.585938 46.695312 381.335938 C 46.089844 381.085938 45.472656 380.863281 44.84375 380.671875 C 44.214844 380.484375 43.578125 380.324219 42.9375 380.195312 C 42.292969 380.066406 41.644531 379.972656 40.988281 379.90625 C 40.335938 379.84375 39.679688 379.808594 39.023438 379.808594 C 38.367188 379.808594 37.714844 379.84375 37.058594 379.90625 C 36.40625 379.972656 35.757812 380.066406 35.113281 380.195312 C 34.46875 380.324219 33.835938 380.484375 33.207031 380.671875 C 32.578125 380.863281 31.960938 381.085938 31.355469 381.335938 C 30.746094 381.585938 30.15625 381.867188 29.574219 382.175781 C 28.996094 382.488281 28.433594 382.824219 27.886719 383.1875 C 27.34375 383.554688 26.816406 383.945312 26.308594 384.359375 C 25.800781 384.777344 25.316406 385.21875 24.851562 385.679688 C 24.386719 386.144531 23.945312 386.632812 23.527344 387.140625 C 23.113281 387.644531 22.722656 388.171875 22.355469 388.71875 C 21.992188 389.265625 21.65625 389.828125 21.347656 390.40625 C 21.035156 390.984375 20.757812 391.578125 20.503906 392.183594 C 20.253906 392.792969 20.03125 393.410156 19.84375 394.035156 C 19.652344 394.664062 19.492188 395.300781 19.363281 395.945312 C 19.234375 396.589844 19.140625 397.238281 19.074219 397.890625 C 19.011719 398.542969 18.980469 399.199219 18.980469 399.855469 L 18.980469 520.132812 C 18.980469 522.101562 19.074219 524.066406 19.269531 526.027344 C 19.460938 527.988281 19.75 529.933594 20.132812 531.867188 C 20.519531 533.796875 20.996094 535.707031 21.570312 537.589844 C 22.140625 539.476562 22.804688 541.328125 23.558594 543.148438 C 24.308594 544.964844 25.152344 546.746094 26.078125 548.480469 C 27.007812 550.21875 28.019531 551.90625 29.113281 553.542969 C 30.207031 555.183594 31.378906 556.761719 32.628906 558.285156 C 33.878906 559.808594 35.199219 561.265625 36.59375 562.65625 C 37.984375 564.050781 39.445312 565.371094 40.964844 566.621094 C 42.488281 567.871094 44.070312 569.042969 45.707031 570.136719 C 47.34375 571.230469 49.03125 572.242188 50.769531 573.171875 C 52.503906 574.097656 54.285156 574.941406 56.101562 575.695312 C 57.921875 576.449219 59.773438 577.109375 61.660156 577.683594 C 63.546875 578.253906 65.453125 578.730469 67.386719 579.117188 C 69.316406 579.5 71.261719 579.789062 73.222656 579.980469 C 75.183594 580.175781 77.148438 580.273438 79.117188 580.273438 L 199.394531 580.273438 C 200.050781 580.273438 200.707031 580.238281 201.359375 580.175781 C 202.011719 580.109375 202.660156 580.015625 203.304688 579.886719 C 203.949219 579.757812 204.585938 579.597656 205.214844 579.410156 C 205.839844 579.21875 206.460938 578.996094 207.066406 578.746094 C 207.671875 578.496094 208.265625 578.214844 208.84375 577.90625 C 209.421875 577.59375 209.984375 577.257812 210.53125 576.894531 C 211.078125 576.527344 211.605469 576.136719 212.113281 575.722656 C 212.617188 575.304688 213.105469 574.863281 213.570312 574.398438 C 214.035156 573.9375 214.472656 573.449219 214.890625 572.941406 C 215.308594 572.433594 215.699219 571.910156 216.0625 571.363281 C 216.425781 570.816406 216.765625 570.253906 217.074219 569.675781 C 217.382812 569.097656 217.664062 568.503906 217.914062 567.898438 C 218.164062 567.289062 218.386719 566.671875 218.578125 566.042969 C 218.769531 565.417969 218.925781 564.78125 219.054688 564.136719 C 219.183594 563.492188 219.28125 562.84375 219.34375 562.191406 C 219.410156 561.535156 219.441406 560.882812 219.441406 560.226562 C 219.441406 559.570312 219.410156 558.914062 219.34375 558.261719 C 219.28125 557.605469 219.183594 556.957031 219.054688 556.316406 C 218.925781 555.671875 218.769531 555.035156 218.578125 554.40625 C 218.386719 553.777344 218.164062 553.160156 217.914062 552.554688 C 217.664062 551.949219 217.382812 551.355469 217.074219 550.777344 C 216.765625 550.195312 216.425781 549.632812 216.0625 549.089844 C 215.699219 548.542969 215.308594 548.015625 214.890625 547.507812 C 214.472656 547 214.035156 546.515625 213.570312 546.050781 C 213.105469 545.585938 212.617188 545.144531 212.113281 544.730469 C 211.605469 544.3125 211.078125 543.921875 210.53125 543.558594 C 209.984375 543.191406 209.421875 542.855469 208.84375 542.546875 C 208.265625 542.238281 207.671875 541.957031 207.066406 541.703125 C 206.460938 541.453125 205.839844 541.234375 205.214844 541.042969 C 204.585938 540.851562 203.949219 540.691406 203.304688 540.5625 C 202.660156 540.4375 202.011719 540.339844 201.359375 540.277344 C 200.707031 540.210938 200.050781 540.179688 199.394531 540.179688 Z M 560.226562 379.808594 C 559.570312 379.808594 558.914062 379.84375 558.261719 379.90625 C 557.605469 379.972656 556.957031 380.066406 556.316406 380.195312 C 555.671875 380.324219 555.035156 380.484375 554.40625 380.671875 C 553.777344 380.863281 553.160156 381.085938 552.554688 381.335938 C 551.949219 381.585938 551.355469 381.867188 550.777344 382.175781 C 550.195312 382.488281 549.632812 382.824219 549.089844 383.1875 C 548.542969 383.554688 548.015625 383.945312 547.507812 384.359375 C 547 384.777344 546.515625 385.21875 546.050781 385.679688 C 545.585938 386.144531 545.144531 386.632812 544.730469 387.140625 C 544.3125 387.644531 543.921875 388.171875 543.558594 388.71875 C 543.191406 389.265625 542.855469 389.828125 542.546875 390.40625 C 542.238281 390.984375 541.957031 391.578125 541.707031 392.183594 C 541.453125 392.792969 541.234375 393.410156 541.042969 394.035156 C 540.851562 394.664062 540.691406 395.300781 540.5625 395.945312 C 540.4375 396.589844 540.339844 397.238281 540.277344 397.890625 C 540.210938 398.542969 540.179688 399.199219 540.179688 399.855469 L 540.179688 520.132812 C 540.179688 520.789062 540.148438 521.445312 540.082031 522.097656 C 540.019531 522.75 539.921875 523.398438 539.792969 524.042969 C 539.664062 524.6875 539.507812 525.324219 539.316406 525.953125 C 539.125 526.582031 538.90625 527.199219 538.652344 527.804688 C 538.402344 528.410156 538.121094 529.003906 537.8125 529.582031 C 537.503906 530.160156 537.164062 530.722656 536.800781 531.269531 C 536.4375 531.816406 536.046875 532.34375 535.628906 532.851562 C 535.210938 533.359375 534.773438 533.84375 534.308594 534.308594 C 533.84375 534.773438 533.359375 535.210938 532.851562 535.628906 C 532.34375 536.046875 531.816406 536.4375 531.269531 536.800781 C 530.722656 537.164062 530.160156 537.503906 529.582031 537.8125 C 529.003906 538.121094 528.410156 538.402344 527.804688 538.652344 C 527.199219 538.90625 526.582031 539.125 525.953125 539.316406 C 525.324219 539.507812 524.6875 539.664062 524.042969 539.792969 C 523.398438 539.921875 522.75 540.019531 522.097656 540.082031 C 521.445312 540.148438 520.789062 540.179688 520.132812 540.179688 L 419.902344 540.179688 C 419.246094 540.179688 418.589844 540.210938 417.9375 540.277344 C 417.285156 540.339844 416.636719 540.4375 415.992188 540.5625 C 415.347656 540.691406 414.710938 540.851562 414.082031 541.042969 C 413.453125 541.234375 412.835938 541.453125 412.230469 541.707031 C 411.625 541.957031 411.03125 542.238281 410.453125 542.546875 C 409.875 542.855469 409.3125 543.191406 408.765625 543.558594 C 408.21875 543.921875 407.691406 544.3125 407.183594 544.730469 C 406.675781 545.144531 406.191406 545.585938 405.726562 546.050781 C 405.261719 546.515625 404.824219 547 404.40625 547.507812 C 403.988281 548.015625 403.597656 548.542969 403.234375 549.089844 C 402.871094 549.632812 402.53125 550.195312 402.222656 550.777344 C 401.914062 551.355469 401.632812 551.949219 401.382812 552.554688 C 401.128906 553.160156 400.910156 553.777344 400.71875 554.40625 C 400.527344 555.035156 400.371094 555.671875 400.242188 556.316406 C 400.113281 556.957031 400.015625 557.605469 399.953125 558.261719 C 399.886719 558.914062 399.855469 559.570312 399.855469 560.226562 C 399.855469 560.882812 399.886719 561.535156 399.953125 562.191406 C 400.015625 562.84375 400.113281 563.492188 400.242188 564.136719 C 400.371094 564.78125 400.527344 565.417969 400.71875 566.042969 C 400.910156 566.671875 401.128906 567.289062 401.382812 567.898438 C 401.632812 568.503906 401.914062 569.097656 402.222656 569.675781 C 402.53125 570.253906 402.871094 570.816406 403.234375 571.363281 C 403.597656 571.910156 403.988281 572.433594 404.40625 572.941406 C 404.824219 573.449219 405.261719 573.9375 405.726562 574.398438 C 406.191406 574.863281 406.675781 575.304688 407.183594 575.722656 C 407.691406 576.136719 408.21875 576.527344 408.765625 576.894531 C 409.3125 577.257812 409.875 577.59375 410.453125 577.90625 C 411.03125 578.214844 411.625 578.496094 412.230469 578.746094 C 412.835938 578.996094 413.453125 579.21875 414.082031 579.410156 C 414.710938 579.597656 415.347656 579.757812 415.992188 579.886719 C 416.636719 580.015625 417.285156 580.109375 417.9375 580.175781 C 418.589844 580.238281 419.246094 580.273438 419.902344 580.273438 L 520.132812 580.273438 C 522.101562 580.273438 524.066406 580.175781 526.027344 579.980469 C 527.988281 579.789062 529.933594 579.5 531.867188 579.117188 C 533.796875 578.730469 535.707031 578.253906 537.589844 577.683594 C 539.476562 577.109375 541.328125 576.449219 543.148438 575.695312 C 544.964844 574.941406 546.746094 574.097656 548.480469 573.171875 C 550.21875 572.242188 551.90625 571.230469 553.542969 570.136719 C 555.183594 569.042969 556.761719 567.871094 558.285156 566.621094 C 559.808594 565.371094 561.265625 564.050781 562.65625 562.65625 C 564.050781 561.265625 565.371094 559.808594 566.621094 558.285156 C 567.871094 556.761719 569.042969 555.183594 570.136719 553.542969 C 571.230469 551.90625 572.242188 550.21875 573.171875 548.480469 C 574.097656 546.746094 574.941406 544.964844 575.695312 543.148438 C 576.449219 541.328125 577.109375 539.476562 577.683594 537.589844 C 578.253906 535.707031 578.730469 533.796875 579.117188 531.867188 C 579.5 529.933594 579.789062 527.988281 579.980469 526.027344 C 580.175781 524.066406 580.273438 522.101562 580.273438 520.132812 L 580.273438 399.855469 C 580.273438 399.199219 580.238281 398.542969 580.175781 397.890625 C 580.109375 397.238281 580.015625 396.589844 579.886719 395.945312 C 579.757812 395.300781 579.597656 394.664062 579.410156 394.035156 C 579.21875 393.410156 578.996094 392.792969 578.746094 392.183594 C 578.496094 391.578125 578.214844 390.984375 577.90625 390.40625 C 577.59375 389.828125 577.257812 389.265625 576.894531 388.71875 C 576.527344 388.171875 576.136719 387.644531 575.722656 387.140625 C 575.304688 386.632812 574.863281 386.144531 574.398438 385.679688 C 573.9375 385.21875 573.449219 384.777344 572.941406 384.359375 C 572.433594 383.945312 571.910156 383.554688 571.363281 383.1875 C 570.816406 382.824219 570.253906 382.488281 569.675781 382.175781 C 569.097656 381.867188 568.503906 381.585938 567.898438 381.335938 C 567.289062 381.085938 566.671875 380.863281 566.042969 380.671875 C 565.417969 380.484375 564.78125 380.324219 564.136719 380.195312 C 563.492188 380.066406 562.84375 379.972656 562.191406 379.90625 C 561.535156 379.84375 560.882812 379.808594 560.226562 379.808594 Z M 560.226562 379.808594 " fill-opacity="1" fill-rule="nonzero"/></g><g fill="#ffffff" fill-opacity="1"><g transform="translate(440.28807, 135.485092)"><g><path d="M -251.359375 64.96875 C -251.359375 43.039062 -244.050781 26.664062 -229.4375 15.84375 C -222.394531 10.695312 -215.148438 6.703125 -207.703125 3.859375 C -200.265625 1.015625 -193.023438 -0.40625 -185.984375 -0.40625 L -97.453125 -0.40625 C -90.421875 -0.40625 -83.179688 1.015625 -75.734375 3.859375 C -68.285156 6.703125 -61.046875 10.695312 -54.015625 15.84375 C -46.972656 21.25 -41.554688 27.945312 -37.765625 35.9375 C -33.972656 43.925781 -32.078125 53.601562 -32.078125 64.96875 L -32.078125 304.96875 C -32.078125 317.957031 -40.0625 324.453125 -56.03125 324.453125 C -72.28125 324.453125 -80.40625 317.957031 -80.40625 304.96875 L -80.40625 68.21875 C -80.40625 61.175781 -82.429688 54.8125 -86.484375 49.125 C -90.546875 43.445312 -97.585938 40.609375 -107.609375 40.609375 L -175.828125 40.609375 C -185.847656 40.609375 -192.882812 43.445312 -196.9375 49.125 C -201 54.8125 -203.03125 61.175781 -203.03125 68.21875 L -203.03125 304.96875 C -203.03125 317.957031 -211.019531 324.453125 -227 324.453125 C -243.238281 324.453125 -251.359375 317.957031 -251.359375 304.96875 Z M -251.359375 64.96875 "/></g></g></g><g fill="#ffffff" fill-opacity="1"><g transform="translate(303.495107, 211.767108)"><g><path d="M -52.59375 19.34375 C -52.59375 13.988281 -50.78125 9.460938 -47.15625 5.765625 C -43.539062 2.078125 -39.0625 0.234375 -33.71875 0.234375 C -28.375 0.234375 -23.894531 2.078125 -20.28125 5.765625 C -16.664062 9.460938 -14.859375 13.988281 -14.859375 19.34375 C -14.859375 24.53125 -16.664062 28.96875 -20.28125 32.65625 C -23.894531 36.351562 -28.375 38.203125 -33.71875 38.203125 C -39.0625 38.203125 -43.539062 36.351562 -47.15625 32.65625 C -50.78125 28.96875 -52.59375 24.53125 -52.59375 19.34375 Z M -52.59375 19.34375 "/></g></g></g><g fill="#ffffff" fill-opacity="1"><g transform="translate(361.082447, 211.767108)"><g><path d="M -52.59375 19.34375 C -52.59375 13.988281 -50.78125 9.460938 -47.15625 5.765625 C -43.539062 2.078125 -39.0625 0.234375 -33.71875 0.234375 C -28.375 0.234375 -23.894531 2.078125 -20.28125 5.765625 C -16.664062 9.460938 -14.859375 13.988281 -14.859375 19.34375 C -14.859375 24.53125 -16.664062 28.96875 -20.28125 32.65625 C -23.894531 36.351562 -28.375 38.203125 -33.71875 38.203125 C -39.0625 38.203125 -43.539062 36.351562 -47.15625 32.65625 C -50.78125 28.96875 -52.59375 24.53125 -52.59375 19.34375 Z M -52.59375 19.34375 "/></g></g></g></svg>